<?xml version="1.0" encoding="UTF-8" standalone="no"?>
<!-- Uploaded to: SVG Repo, www.svgrepo.com, Generator: SVG Repo Mixer Tools -->

<svg
   fill="#000000"
   width="787.96844"
   height="758.36426"
   viewBox="0 0 31.518738 30.33457"
   version="1.1"
   id="svg1"
   xml:space="preserve"
   xmlns="http://www.w3.org/2000/svg"
   xmlns:svg="http://www.w3.org/2000/svg"
   xmlns:rdf="http://www.w3.org/1999/02/22-rdf-syntax-ns#"
   xmlns:cc="http://creativecommons.org/ns#"
   xmlns:dc="http://purl.org/dc/elements/1.1/"><defs
     id="defs1" /><title
     id="title1">cat</title><metadata
     id="metadata2"><rdf:RDF><cc:Work
         rdf:about=""><dc:title>cat</dc:title></cc:Work></rdf:RDF></metadata><g
     id="layer2"
     transform="translate(-32.842602,-0.85332836)"><g
       id="g1"
       transform="translate(-28.198114,-0.86116022)"><path
         id="path1-3-3-6"
         style="fill:#d79921;fill-opacity:1;fill-rule:evenodd;stroke:#d79921;stroke-width:1.2;stroke-linecap:butt;stroke-miterlimit:4;stroke-dasharray:none;stroke-opacity:1"
         d="m 82.954505,10.020729 c -3.721565,-1.2061358 -9.262316,-0.9700658 -12.747812,0 L 66.036849,2.9644012 C 44.640099,42.931448 109.43151,38.933969 87.283099,2.8672132 Z" /><path
         id="path1-3-3"
         style="fill:#000000;fill-opacity:1;fill-rule:evenodd;stroke:none;stroke-width:0.793512;stroke-linecap:round;stroke-miterlimit:3.2;stroke-dasharray:none"
         d="m 82.954505,10.020729 c -3.721565,-1.2061365 -9.262316,-0.9700665 -12.747812,0 L 66.036849,2.9644005 C 44.640099,42.931448 109.43151,38.933969 87.283099,2.8672135 Z m 0.567266,7.552813 c 1.037991,-0.0054 2.268867,0.37645 3.677969,1.251171 -0.892699,3.705696 -2.979587,5.50302 -7.572031,3.285157 0.260495,-2.63768 1.610482,-4.524347 3.894062,-4.536328 z m -13.523281,8.59e-4 c 2.28358,0.01204 3.633567,1.897789 3.894062,4.535469 -4.594428,2.215879 -6.679332,0.420539 -7.572031,-3.285157 1.409101,-0.874101 2.639978,-1.255785 3.677969,-1.250312 z m 2.352344,8.336328 h 0.61875 l 0.446249,0.894375 0.448126,-0.894375 h 0.61875 l -0.826876,1.344375 0.826876,1.318125 h -0.61875 l -0.448126,-0.879375 -0.446249,0.879375 h -0.61875 l 0.824999,-1.318125 z m 2.473124,0 h 1.68375 v 0.444375 h -0.596249 v 1.771875 h 0.596249 v 0.44625 h -1.68375 v -0.44625 h 0.592501 v -1.771875 h -0.592501 z m 2.25,0 h 1.68375 v 0.444375 h -0.596249 v 1.771875 h 0.596249 v 0.44625 h -1.68375 v -0.44625 h 0.592501 v -1.771875 h -0.592501 z m 2.25,0 h 1.68375 v 0.444375 h -0.596249 v 1.771875 h 0.596249 v 0.44625 h -1.68375 v -0.44625 h 0.592501 v -1.771875 h -0.592501 z" /></g></g></svg>
