<?xml version="1.0" encoding="UTF-8" standalone="no"?>
<!-- Uploaded to: SVG Repo, www.svgrepo.com, Generator: SVG Repo Mixer Tools -->

<svg
   fill="#000000"
   width="800px"
   height="800px"
   viewBox="0 0 32 32"
   version="1.1"
   id="svg1"
   sodipodi:docname="avatar2.svg"
   xml:space="preserve"
   inkscape:version="1.4.3 (0d15f75042, 2025-12-25)"
   inkscape:export-filename="cat-svgrepo-com2.png"
   inkscape:export-xdpi="136.74001"
   inkscape:export-ydpi="136.74001"
   xmlns:inkscape="http://www.inkscape.org/namespaces/inkscape"
   xmlns:sodipodi="http://sodipodi.sourceforge.net/DTD/sodipodi-0.dtd"
   xmlns="http://www.w3.org/2000/svg"
   xmlns:svg="http://www.w3.org/2000/svg"
   xmlns:rdf="http://www.w3.org/1999/02/22-rdf-syntax-ns#"
   xmlns:cc="http://creativecommons.org/ns#"
   xmlns:dc="http://purl.org/dc/elements/1.1/"><defs
     id="defs1" /><sodipodi:namedview
     id="namedview1"
     pagecolor="#ffffff"
     bordercolor="#000000"
     borderopacity="0.25"
     inkscape:showpageshadow="2"
     inkscape:pageopacity="0.0"
     inkscape:pagecheckerboard="0"
     inkscape:deskcolor="#d1d1d1"
     inkscape:zoom="0.70710678"
     inkscape:cx="239.7092"
     inkscape:cy="221.32442"
     inkscape:window-width="1920"
     inkscape:window-height="1058"
     inkscape:window-x="0"
     inkscape:window-y="22"
     inkscape:window-maximized="1"
     inkscape:current-layer="svg1" /><title
     id="title1">cat</title><metadata
     id="metadata2"><rdf:RDF><cc:Work
         rdf:about=""><dc:title>cat</dc:title></cc:Work></rdf:RDF></metadata><g
     id="g3"
     inkscape:label="cat"><path
       style="display:inline;fill:#d79921;fill-opacity:1;fill-rule:evenodd;stroke:#d79921;stroke-width:0.8;stroke-linecap:round;stroke-linejoin:round;stroke-dasharray:none;stroke-opacity:1"
       d="m 26.481335,1.7070509 -4.328594,7.1575 c -3.721565,-1.2061364 -9.262316,-0.9700669 -12.7478123,0 L 5.2350849,1.8082228 C -16.161665,41.77527 48.629748,37.777791 26.481335,1.7110353 Z"
       id="path7"
       inkscape:label="outline" /><path
       id="path1-3"
       style="fill:#282828;fill-opacity:1;fill-rule:evenodd;stroke-width:1.98378"
       inkscape:label="face"
       d="m 26.481335,1.7070509 -4.328594,7.1575 c -3.721565,-1.206136 -9.262316,-0.970067 -12.7478122,0 L 5.2350848,1.8082228 C -16.161665,41.77527 48.629748,37.777791 26.481335,1.7110353 Z M 22.720007,16.417364 c 1.037991,-0.0054 2.268867,0.37645 3.677969,1.251171 -0.892699,3.705696 -2.979587,5.50302 -7.572031,3.285157 0.260495,-2.63768 1.610482,-4.524347 3.894062,-4.536328 z m -13.5232812,8.59e-4 c 2.2835802,0.01204 3.6335672,1.897789 3.8940622,4.535469 -4.5944282,2.215879 -6.6793312,0.420539 -7.5720312,-3.285157 1.409102,-0.874101 2.639978,-1.255785 3.677969,-1.250312 z m 2.3523442,8.336328 h 0.61875 l 0.446249,0.894375 0.448126,-0.894375 h 0.61875 l -0.826876,1.344375 0.826876,1.318125 h -0.61875 l -0.448126,-0.879375 -0.446249,0.879375 h -0.61875 l 0.824999,-1.318125 z m 2.473124,0 h 1.68375 v 0.444375 h -0.596249 v 1.771875 h 0.596249 v 0.44625 h -1.68375 v -0.44625 h 0.592501 v -1.771875 h -0.592501 z m 2.25,0 h 1.68375 v 0.444375 h -0.596249 v 1.771875 h 0.596249 v 0.44625 h -1.68375 v -0.44625 h 0.592501 v -1.771875 h -0.592501 z m 2.25,0 h 1.68375 v 0.444375 h -0.596249 v 1.771875 h 0.596249 v 0.44625 h -1.68375 v -0.44625 h 0.592501 v -1.771875 h -0.592501 z" /></g></svg>
